<?xml version="1.0" standalone="no"?><!DOCTYPE svg PUBLIC "-//W3C//DTD SVG 1.1//EN" "http://www.w3.org/Graphics/SVG/1.1/DTD/svg11.dtd"><svg xmlns:xlink="http://www.w3.org/1999/xlink" version="1.1" class="highcharts-root" style="font-family:&quot;lucida grande&quot;, &quot;lucida sans unicode&quot;, arial, helvetica, sans-serif;font-size:12px;" xmlns="http://www.w3.org/2000/svg" width="600" height="200" viewBox="0 0 600 200"><desc>Created with Highcharts 5.0.14</desc><defs><linearGradient x1="0" y1="0" x2="0" y2="1" id="highcharts-p07rqet-9"><stop offset="0" stop-color="#FFF4C6" stop-opacity="1"></stop><stop offset="0.3" stop-color="#FFFFFF" stop-opacity="1"></stop><stop offset="1" stop-color="#FFF4C6" stop-opacity="1"></stop></linearGradient><clipPath id="highcharts-p07rqet-10"><rect x="0" y="0" width="580" height="132" fill="none"></rect></clipPath></defs><rect fill="#ffffff" class="highcharts-background" x="0" y="0" width="600" height="200" rx="0" ry="0"></rect><rect fill="url(#highcharts-p07rqet-9)" class="highcharts-plot-background" x="10" y="53" width="580" height="132"></rect><g class="highcharts-pane-group"></g><g class="highcharts-pane-group"></g><g class="highcharts-plot-bands-0"><path fill="#C02316" class="highcharts-plot-band " d="M 219.6400168588092 100.7757742562458 A 157.5 157.5 0 0 1 266.25789305275157 132.91936834829784 L 260.95989814547767 138.22796985552174 A 150 150 0 0 0 216.56192081791352 107.61502310118647 Z"></path></g><g class="highcharts-plot-bands-0"><path fill="#C02316" class="highcharts-plot-band " d="M 509.6400168588092 100.7757742562458 A 157.5 157.5 0 0 1 556.2578930527516 132.91936834829784 L 550.9598981454776 138.22796985552174 A 150 150 0 0 0 506.5619208179135 107.61502310118647 Z"></path></g><g class="highcharts-grid highcharts-yaxis-grid "><path fill="none" class="highcharts-minor-grid-line" d="M 155 244.4 L 48.93398282201788 138.33398282201787" opacity="1"></path><path fill="none" class="highcharts-minor-grid-line" d="M 155 244.4 L 62.49216910571853 126.32247790864248" opacity="1"></path><path fill="none" class="highcharts-minor-grid-line" d="M 155 244.4 L 77.39932787335147 116.03280915478288" opacity="1"></path><path fill="none" class="highcharts-minor-grid-line" d="M 155 244.4 L 93.43807918208648 107.6150231011865" opacity="1"></path><path fill="none" class="highcharts-minor-grid-line" d="M 155 244.4 L 110.37454192171957 101.19187002371814" opacity="1"></path><path fill="none" class="highcharts-minor-grid-line" d="M 155 244.4 L 127.96174432791415 96.85701395792847" opacity="1"></path><path fill="none" class="highcharts-minor-grid-line" d="M 155 244.4 L 145.94322538665708 94.67366686650237" opacity="1"></path><path fill="none" class="highcharts-minor-grid-line" d="M 155 244.4 L 164.0567746133429 94.67366686650237" opacity="1"></path><path fill="none" class="highcharts-minor-grid-line" d="M 155 244.4 L 182.03825567208588 96.85701395792847" opacity="1"></path><path fill="none" class="highcharts-minor-grid-line" d="M 155 244.4 L 199.62545807828045 101.19187002371817" opacity="1"></path><path fill="none" class="highcharts-minor-grid-line" d="M 155 244.4 L 216.56192081791352 107.61502310118647" opacity="1"></path><path fill="none" class="highcharts-minor-grid-line" d="M 155 244.4 L 232.60067212664853 116.03280915478288" opacity="1"></path><path fill="none" class="highcharts-minor-grid-line" d="M 155 244.4 L 247.50783089428143 126.32247790864248" opacity="1"></path><path fill="none" class="highcharts-minor-grid-line" d="M 155 244.4 L 261.06601717798213 138.3339828220179" opacity="1"></path><path fill="none" class="highcharts-grid-line" d="M 155 244.4 L 48.93398282201788 138.33398282201787" opacity="1"></path><path fill="none" class="highcharts-grid-line" d="M 155 244.4 L 127.96174432791415 96.85701395792847" opacity="1"></path><path fill="none" class="highcharts-grid-line" d="M 155 244.4 L 216.56192081791352 107.61502310118647" opacity="1"></path></g><g class="highcharts-grid highcharts-yaxis-grid "><path fill="none" class="highcharts-minor-grid-line" d="M 445 244.4 L 338.93398282201787 138.33398282201787" opacity="1"></path><path fill="none" class="highcharts-minor-grid-line" d="M 445 244.4 L 352.4921691057185 126.32247790864248" opacity="1"></path><path fill="none" class="highcharts-minor-grid-line" d="M 445 244.4 L 367.39932787335147 116.03280915478288" opacity="1"></path><path fill="none" class="highcharts-minor-grid-line" d="M 445 244.4 L 383.4380791820865 107.6150231011865" opacity="1"></path><path fill="none" class="highcharts-minor-grid-line" d="M 445 244.4 L 400.3745419217196 101.19187002371814" opacity="1"></path><path fill="none" class="highcharts-minor-grid-line" d="M 445 244.4 L 417.9617443279141 96.85701395792847" opacity="1"></path><path fill="none" class="highcharts-minor-grid-line" d="M 445 244.4 L 435.9432253866571 94.67366686650237" opacity="1"></path><path fill="none" class="highcharts-minor-grid-line" d="M 445 244.4 L 454.0567746133429 94.67366686650237" opacity="1"></path><path fill="none" class="highcharts-minor-grid-line" d="M 445 244.4 L 472.0382556720859 96.85701395792847" opacity="1"></path><path fill="none" class="highcharts-minor-grid-line" d="M 445 244.4 L 489.6254580782804 101.19187002371817" opacity="1"></path><path fill="none" class="highcharts-minor-grid-line" d="M 445 244.4 L 506.5619208179135 107.61502310118647" opacity="1"></path><path fill="none" class="highcharts-minor-grid-line" d="M 445 244.4 L 522.6006721266485 116.03280915478288" opacity="1"></path><path fill="none" class="highcharts-minor-grid-line" d="M 445 244.4 L 537.5078308942815 126.32247790864248" opacity="1"></path><path fill="none" class="highcharts-minor-grid-line" d="M 445 244.4 L 551.0660171779821 138.3339828220179" opacity="1"></path><path fill="none" class="highcharts-grid-line" d="M 445 244.4 L 338.93398282201787 138.33398282201787" opacity="1"></path><path fill="none" class="highcharts-grid-line" d="M 445 244.4 L 417.9617443279141 96.85701395792847" opacity="1"></path><path fill="none" class="highcharts-grid-line" d="M 445 244.4 L 506.5619208179135 107.61502310118647" opacity="1"></path></g><rect fill="none" class="highcharts-plot-border" stroke="#cccccc" stroke-width="1" x="9.5" y="52.5" width="581" height="133"></rect><g class="highcharts-axis highcharts-yaxis "><path fill="none" class="highcharts-minor-tick" stroke="#999999" stroke-width="1" d="M 48.93398282201788 138.33398282201787 L 41.862915010152406 131.2629150101524" opacity="1"></path><path fill="none" class="highcharts-minor-tick" stroke="#999999" stroke-width="1" d="M 62.49216910571853 126.32247790864248 L 56.3249803794331 118.45064310255198" opacity="1"></path><path fill="none" class="highcharts-minor-tick" stroke="#999999" stroke-width="1" d="M 77.39932787335147 116.03280915478288 L 72.2259497315749 107.4749964317684" opacity="1"></path><path fill="none" class="highcharts-minor-tick" stroke="#999999" stroke-width="1" d="M 93.43807918208648 107.6150231011865 L 89.3339511275589 98.49602464126559" opacity="1"></path><path fill="none" class="highcharts-minor-tick" stroke="#999999" stroke-width="1" d="M 110.37454192171957 101.19187002371814 L 107.39951138316755 91.6446613586327" opacity="1"></path><path fill="none" class="highcharts-minor-tick" stroke="#999999" stroke-width="1" d="M 127.96174432791415 96.85701395792847 L 126.15919394977509 87.02081488845701" opacity="1"></path><path fill="none" class="highcharts-minor-tick" stroke="#999999" stroke-width="1" d="M 145.94322538665708 94.67366686650237 L 145.33944041243421 84.6919113242692" opacity="1"></path><path fill="none" class="highcharts-minor-tick" stroke="#999999" stroke-width="1" d="M 164.0567746133429 94.67366686650237 L 164.66055958756576 84.6919113242692" opacity="1"></path><path fill="none" class="highcharts-minor-tick" stroke="#999999" stroke-width="1" d="M 182.03825567208588 96.85701395792847 L 183.84080605022493 87.02081488845704" opacity="1"></path><path fill="none" class="highcharts-minor-tick" stroke="#999999" stroke-width="1" d="M 199.62545807828045 101.19187002371817 L 202.60048861683248 91.6446613586327" opacity="1"></path><path fill="none" class="highcharts-minor-tick" stroke="#999999" stroke-width="1" d="M 216.56192081791352 107.61502310118647 L 220.66604887244108 98.49602464126556" opacity="1"></path><path fill="none" class="highcharts-minor-tick" stroke="#999999" stroke-width="1" d="M 232.60067212664853 116.03280915478288 L 237.77405026842507 107.4749964317684" opacity="1"></path><path fill="none" class="highcharts-minor-tick" stroke="#999999" stroke-width="1" d="M 247.50783089428143 126.32247790864248 L 253.67501962056687 118.45064310255198" opacity="1"></path><path fill="none" class="highcharts-minor-tick" stroke="#999999" stroke-width="1" d="M 261.06601717798213 138.3339828220179 L 268.1370849898476 131.26291501015243" opacity="1"></path><path fill="none" class="highcharts-tick" stroke="#ccd6eb" stroke-width="2" d="M 48.93398282201788 138.33398282201787 L 41.862915010152406 131.2629150101524" opacity="1"></path><path fill="none" class="highcharts-tick" stroke="#ccd6eb" stroke-width="2" d="M 127.96174432791415 96.85701395792847 L 126.15919394977509 87.02081488845701" opacity="1"></path><path fill="none" class="highcharts-tick" stroke="#ccd6eb" stroke-width="2" d="M 216.56192081791352 107.61502310118647 L 220.66604887244108 98.49602464126556" opacity="1"></path><text x="155" text-anchor="middle" transform="translate(0,0)" class="highcharts-axis-title" style="color:#666666;fill:#666666;" y="129.4"><tspan>VU</tspan><tspan style="font-size:8px" x="155" dy="11">Channel A</tspan></text><path fill="none" class="highcharts-axis-line" stroke="#ccd6eb" stroke-width="1" d="M 48.93398282201788 138.33398282201787 A 150 150 0 0 1 260.95989814547767 138.22796985552174 M 155 244.4 A 0 0 0 0 0 155 244.4 "></path></g><g class="highcharts-axis highcharts-yaxis "><path fill="none" class="highcharts-minor-tick" stroke="#999999" stroke-width="1" d="M 338.93398282201787 138.33398282201787 L 331.8629150101524 131.2629150101524" opacity="1"></path><path fill="none" class="highcharts-minor-tick" stroke="#999999" stroke-width="1" d="M 352.4921691057185 126.32247790864248 L 346.3249803794331 118.45064310255198" opacity="1"></path><path fill="none" class="highcharts-minor-tick" stroke="#999999" stroke-width="1" d="M 367.39932787335147 116.03280915478288 L 362.22594973157493 107.4749964317684" opacity="1"></path><path fill="none" class="highcharts-minor-tick" stroke="#999999" stroke-width="1" d="M 383.4380791820865 107.6150231011865 L 379.3339511275589 98.49602464126559" opacity="1"></path><path fill="none" class="highcharts-minor-tick" stroke="#999999" stroke-width="1" d="M 400.3745419217196 101.19187002371814 L 397.3995113831675 91.6446613586327" opacity="1"></path><path fill="none" class="highcharts-minor-tick" stroke="#999999" stroke-width="1" d="M 417.9617443279141 96.85701395792847 L 416.1591939497751 87.02081488845701" opacity="1"></path><path fill="none" class="highcharts-minor-tick" stroke="#999999" stroke-width="1" d="M 435.9432253866571 94.67366686650237 L 435.3394404124342 84.6919113242692" opacity="1"></path><path fill="none" class="highcharts-minor-tick" stroke="#999999" stroke-width="1" d="M 454.0567746133429 94.67366686650237 L 454.6605595875658 84.6919113242692" opacity="1"></path><path fill="none" class="highcharts-minor-tick" stroke="#999999" stroke-width="1" d="M 472.0382556720859 96.85701395792847 L 473.84080605022496 87.02081488845704" opacity="1"></path><path fill="none" class="highcharts-minor-tick" stroke="#999999" stroke-width="1" d="M 489.6254580782804 101.19187002371817 L 492.6004886168325 91.6446613586327" opacity="1"></path><path fill="none" class="highcharts-minor-tick" stroke="#999999" stroke-width="1" d="M 506.5619208179135 107.61502310118647 L 510.6660488724411 98.49602464126556" opacity="1"></path><path fill="none" class="highcharts-minor-tick" stroke="#999999" stroke-width="1" d="M 522.6006721266485 116.03280915478288 L 527.7740502684251 107.4749964317684" opacity="1"></path><path fill="none" class="highcharts-minor-tick" stroke="#999999" stroke-width="1" d="M 537.5078308942815 126.32247790864248 L 543.6750196205669 118.45064310255198" opacity="1"></path><path fill="none" class="highcharts-minor-tick" stroke="#999999" stroke-width="1" d="M 551.0660171779821 138.3339828220179 L 558.1370849898476 131.26291501015243" opacity="1"></path><path fill="none" class="highcharts-tick" stroke="#ccd6eb" stroke-width="2" d="M 338.93398282201787 138.33398282201787 L 331.8629150101524 131.2629150101524" opacity="1"></path><path fill="none" class="highcharts-tick" stroke="#ccd6eb" stroke-width="2" d="M 417.9617443279141 96.85701395792847 L 416.1591939497751 87.02081488845701" opacity="1"></path><path fill="none" class="highcharts-tick" stroke="#ccd6eb" stroke-width="2" d="M 506.5619208179135 107.61502310118647 L 510.6660488724411 98.49602464126556" opacity="1"></path><text x="445" text-anchor="middle" transform="translate(0,0)" class="highcharts-axis-title" style="color:#666666;fill:#666666;" y="129.4"><tspan>VU</tspan><tspan style="font-size:8px" x="445" dy="11">Channel B</tspan></text><path fill="none" class="highcharts-axis-line" stroke="#ccd6eb" stroke-width="1" d="M 338.93398282201787 138.33398282201787 A 150 150 0 0 1 550.9598981454776 138.22796985552174 M 445 244.4 A 0 0 0 0 0 445 244.4 "></path></g><g class="highcharts-series-group"><g class="highcharts-series highcharts-series-0 highcharts-gauge-series highcharts-color-0 " transform="translate(10,53) scale(1 1)" clip-path="url(#highcharts-p07rqet-10)"><path fill="#000000" d="M -15 -1.5 L 105 -1.5 150 -0.5 150 0.5 105 1.5 -15 1.5 z" transform="translate(145,191.4) rotate(-55.86209165639204 0 0)" class="highcharts-dial"></path><circle cx="0" cy="0" r="5" class="highcharts-pivot" transform="translate(145,191.4)" fill="#000000"></circle></g><g class="highcharts-markers highcharts-series-0 highcharts-gauge-series highcharts-color-0 " transform="translate(10,53) scale(1 1)" clip-path="none"></g><g class="highcharts-series highcharts-series-1 highcharts-gauge-series highcharts-color-1 " transform="translate(10,53) scale(1 1)" clip-path="url(#highcharts-p07rqet-10)"><path fill="#000000" d="M -15 -1.5 L 105 -1.5 150 -0.5 150 0.5 105 1.5 -15 1.5 z" transform="translate(435,191.4) rotate(-55.62928922032975 0 0)" class="highcharts-dial"></path><circle cx="0" cy="0" r="5" class="highcharts-pivot" transform="translate(435,191.4)" fill="#000000"></circle></g><g class="highcharts-markers highcharts-series-1 highcharts-gauge-series highcharts-color-1 " transform="translate(10,53) scale(1 1)" clip-path="none"></g></g><text x="300" text-anchor="middle" class="highcharts-title" style="color:#333333;font-size:18px;fill:#333333;" y="24"><tspan>VU meter</tspan></text><g class="highcharts-legend"><rect fill="none" class="highcharts-legend-box" rx="0" ry="0" x="0" y="0" width="8" height="8" visibility="hidden"></rect><g><g></g></g></g><g class="highcharts-axis-labels highcharts-yaxis-labels "><text x="34.79184719828693" style="color:#666666;cursor:default;font-size:11px;fill:#666666;" text-anchor="middle" transform="translate(0,0) rotate(-45 34.79184719828693 124.19184719828692)" y="124.19184719828692" opacity="1"><tspan>-20</tspan></text><text x="124.35664357163603" style="color:#666666;cursor:default;font-size:11px;fill:#666666;" text-anchor="middle" transform="translate(0,0) rotate(-10.384615384615389 124.35664357163603 77.18461581898558)" y="77.18461581898558" opacity="1"><tspan>-10</tspan></text><text x="224.77017692696865" style="color:#666666;cursor:default;font-size:11px;fill:#666666;" text-anchor="middle" transform="translate(0,0) rotate(24.230769230769226 224.77017692696865 89.37702618134469)" y="89.37702618134469" opacity="1"><tspan>0</tspan></text></g><g class="highcharts-axis-labels highcharts-yaxis-labels "><text x="324.7918471982869" style="color:#666666;cursor:default;font-size:11px;fill:#666666;" text-anchor="middle" transform="translate(0,0) rotate(-45 324.7918471982869 124.19184719828692)" y="124.19184719828692" opacity="1"><tspan>-20</tspan></text><text x="414.356643571636" style="color:#666666;cursor:default;font-size:11px;fill:#666666;" text-anchor="middle" transform="translate(0,0) rotate(-10.384615384615389 414.356643571636 77.18461581898558)" y="77.18461581898558" opacity="1"><tspan>-10</tspan></text><text x="514.7701769269686" style="color:#666666;cursor:default;font-size:11px;fill:#666666;" text-anchor="middle" transform="translate(0,0) rotate(24.230769230769226 514.7701769269686 89.37702618134469)" y="89.37702618134469" opacity="1"><tspan>0</tspan></text></g><text x="590" class="highcharts-credits" text-anchor="end" style="cursor:pointer;color:#999999;font-size:9px;fill:#999999;" y="195">Highcharts.com</text></svg>